{
	"asset":{
		"generator":"Khronos glTF Blender I/O v3.6.27",
		"version":"2.0"
	},
	"extensionsUsed":[
		"KHR_materials_specular",
		"KHR_materials_ior"
	],
	"scene":0,
	"scenes":[
		{
			"name":"Scene",
			"nodes":[
				0
			]
		}
	],
	"nodes":[
		{
			"mesh":0,
			"name":"Ethanol.mol",
			"rotation":[
				0.7071068286895752,
				0,
				0,
				0.7071068286895752
			]
		}
	],
	"materials":[
		{
			"doubleSided":true,
			"extensions":{
				"KHR_materials_specular":{
					"specularColorFactor":[
						0.020080160244135427,
						0.020080160244135427,
						0.020080160244135427
					]
				},
				"KHR_materials_ior":{
					"ior":0.0010000000474974513
				}
			},
			"name":"k000000",
			"pbrMetallicRoughness":{
				"baseColorFactor":[
					0,
					0,
					0,
					1
				],
				"metallicFactor":0,
				"roughnessFactor":0.5962674021720886
			}
		},
		{
			"doubleSided":true,
			"extensions":{
				"KHR_materials_specular":{
					"specularColorFactor":[
						0.020080160244135427,
						0.020080160244135427,
						0.020080160244135427
					]
				},
				"KHR_materials_ior":{
					"ior":0.0010000000474974513
				}
			},
			"name":"kff0d0d",
			"pbrMetallicRoughness":{
				"baseColorFactor":[
					1,
					0.054999999701976776,
					0.054999999701976776,
					1
				],
				"metallicFactor":0,
				"roughnessFactor":0.5962674021720886
			}
		},
		{
			"doubleSided":true,
			"extensions":{
				"KHR_materials_specular":{
					"specularColorFactor":[
						0.020080160244135427,
						0.020080160244135427,
						0.020080160244135427
					]
				},
				"KHR_materials_ior":{
					"ior":0.0010000000474974513
				}
			},
			"name":"kffffff",
			"pbrMetallicRoughness":{
				"metallicFactor":0,
				"roughnessFactor":0.5962674021720886
			}
		},
		{
			"doubleSided":true,
			"extensions":{
				"KHR_materials_specular":{
					"specularColorFactor":[
						0.020080160244135427,
						0.020080160244135427,
						0.020080160244135427
					]
				},
				"KHR_materials_ior":{
					"ior":0.0010000000474974513
				}
			},
			"name":"k808080",
			"pbrMetallicRoughness":{
				"baseColorFactor":[
					0.5040000081062317,
					0.5040000081062317,
					0.5040000081062317,
					1
				],
				"metallicFactor":0,
				"roughnessFactor":0.5962674021720886
			}
		}
	],
	"meshes":[
		{
			"name":"Ethanol.mol",
			"primitives":[
				{
					"attributes":{
						"POSITION":0,
						"NORMAL":1
					},
					"indices":2,
					"material":0
				},
				{
					"attributes":{
						"POSITION":3,
						"NORMAL":4
					},
					"indices":5,
					"material":1
				},
				{
					"attributes":{
						"POSITION":6,
						"NORMAL":7
					},
					"indices":8,
					"material":2
				},
				{
					"attributes":{
						"POSITION":9,
						"NORMAL":10
					},
					"indices":11,
					"material":3
				}
			]
		}
	],
	"accessors":[
		{
			"bufferView":0,
			"componentType":5126,
			"count":1284,
			"max":[
				0.43220001459121704,
				0.42500001192092896,
				0.9936999678611755
			],
			"min":[
				-1.710400104522705,
				-0.42500001192092896,
				-0.6748999953269958
			],
			"type":"VEC3"
		},
		{
			"bufferView":1,
			"componentType":5126,
			"count":1284,
			"type":"VEC3"
		},
		{
			"bufferView":2,
			"componentType":5123,
			"count":7680,
			"type":"SCALAR"
		},
		{
			"bufferView":3,
			"componentType":5126,
			"count":642,
			"max":[
				1.5103999376296997,
				0.3799999952316284,
				0.06530001759529114
			],
			"min":[
				0.7503999471664429,
				-0.3799999952316284,
				-0.6947000026702881
			],
			"type":"VEC3"
		},
		{
			"bufferView":4,
			"componentType":5126,
			"count":642,
			"type":"VEC3"
		},
		{
			"bufferView":5,
			"componentType":5123,
			"count":3840,
			"type":"SCALAR"
		},
		{
			"bufferView":6,
			"componentType":5126,
			"count":3852,
			"max":[
				2.260699987411499,
				1.1649999618530273,
				1.4722000360488892
			],
			"min":[
				-2.4172000885009766,
				-1.1649999618530273,
				-1.15339994430542
			],
			"type":"VEC3"
		},
		{
			"bufferView":7,
			"componentType":5126,
			"count":3852,
			"type":"VEC3"
		},
		{
			"bufferView":8,
			"componentType":5123,
			"count":23040,
			"type":"SCALAR"
		},
		{
			"bufferView":9,
			"componentType":5126,
			"count":10848,
			"max":[
				2.086699962615967,
				0.9909999966621399,
				1.298200011253357
			],
			"min":[
				-2.2432000637054443,
				-0.9909999966621399,
				-0.9793999791145325
			],
			"type":"VEC3"
		},
		{
			"bufferView":10,
			"componentType":5126,
			"count":10848,
			"type":"VEC3"
		},
		{
			"bufferView":11,
			"componentType":5123,
			"count":63168,
			"type":"SCALAR"
		}
	],
	"bufferViews":[
		{
			"buffer":0,
			"byteLength":15408,
			"byteOffset":0,
			"target":34962
		},
		{
			"buffer":0,
			"byteLength":15408,
			"byteOffset":15408,
			"target":34962
		},
		{
			"buffer":0,
			"byteLength":15360,
			"byteOffset":30816,
			"target":34963
		},
		{
			"buffer":0,
			"byteLength":7704,
			"byteOffset":46176,
			"target":34962
		},
		{
			"buffer":0,
			"byteLength":7704,
			"byteOffset":53880,
			"target":34962
		},
		{
			"buffer":0,
			"byteLength":7680,
			"byteOffset":61584,
			"target":34963
		},
		{
			"buffer":0,
			"byteLength":46224,
			"byteOffset":69264,
			"target":34962
		},
		{
			"buffer":0,
			"byteLength":46224,
			"byteOffset":115488,
			"target":34962
		},
		{
			"buffer":0,
			"byteLength":46080,
			"byteOffset":161712,
			"target":34963
		},
		{
			"buffer":0,
			"byteLength":130176,
			"byteOffset":207792,
			"target":34962
		},
		{
			"buffer":0,
			"byteLength":130176,
			"byteOffset":337968,
			"target":34962
		},
		{
			"buffer":0,
			"byteLength":126336,
			"byteOffset":468144,
			"target":34963
		}
	],
	"buffers":[
		{
			"byteLength":594480,
			"uri":"data:application/octet-stream;base64,"
		}
	]
}
